<?xml version="1.0" encoding="UTF-8" standalone="no"?>
<svg
   id="Layer_1"
   data-name="Layer 1"
   viewBox="0 0 257.26999 257.32999"
   version="1.1"
   sodipodi:docname="white.svg"
   width="257.26999"
   height="257.32999"
   inkscape:export-filename="tdp.svg"
   inkscape:export-xdpi="96"
   inkscape:export-ydpi="96"
   xmlns:inkscape="http://www.inkscape.org/namespaces/inkscape"
   xmlns:sodipodi="http://sodipodi.sourceforge.net/DTD/sodipodi-0.dtd"
   xmlns="http://www.w3.org/2000/svg"
   xmlns:svg="http://www.w3.org/2000/svg">
  <sodipodi:namedview
     id="namedview15"
     pagecolor="#505050"
     bordercolor="#eeeeee"
     borderopacity="1"
     inkscape:showpageshadow="0"
     inkscape:pageopacity="0"
     inkscape:pagecheckerboard="0"
     inkscape:deskcolor="#505050" />
  <defs
     id="defs1">
    <style
       id="style1">
      .cls-1 {
        fill: #fff;
      }
    </style>
  </defs>
  <path
     class="cls-1"
     d="m 136.57,114.3 c -3.48,-3.37 -8.27,-5.06 -14.37,-5.06 h -7.24 v 38.53 h 7.24 c 6.1,0 10.89,-1.66 14.37,-5 3.47,-3.33 5.21,-8.05 5.21,-14.15 0,-6.1 -1.74,-10.95 -5.21,-14.32 z m 0,0 c -3.48,-3.37 -8.27,-5.06 -14.37,-5.06 h -7.24 v 38.53 h 7.24 c 6.1,0 10.89,-1.66 14.37,-5 3.47,-3.33 5.21,-8.05 5.21,-14.15 0,-6.1 -1.74,-10.95 -5.21,-14.32 z M 128.64,0 C 57.59,0 0,57.62 0,128.67 c 0,71.05 57.59,128.66 128.64,128.66 71.05,0 128.63,-57.61 128.63,-128.66 C 257.27,57.62 199.72,0 128.64,0 Z M 86.33,107.75 H 66.32 v 58.44 H 45.46 v -58.44 h -19.8 v -16.6 h 60.67 z m 71.79,40.24 c -3.23,5.67 -7.81,10.13 -13.73,13.35 -5.92,3.24 -12.79,4.85 -20.6,4.85 H 94.1 V 91.15 h 29.69 c 7.88,0 14.78,1.58 20.71,4.73 5.92,3.16 10.48,7.58 13.67,13.26 3.2,5.67 4.79,12.17 4.79,19.48 0,7.31 -1.61,13.69 -4.84,19.37 z M 219,137.5 c -4.22,2.24 -9.38,3.36 -15.48,3.36 h -10.33 v 25.33 H 172.33 V 91.15 h 31.19 c 6.03,0 11.15,1.06 15.38,3.19 4.22,2.13 7.39,5.08 9.52,8.84 2.13,3.76 3.2,8.08 3.2,12.98 0,4.54 -1.05,8.68 -3.14,12.4 -2.1,3.73 -5.26,6.71 -9.48,8.94 z m -17.51,-29.53 h -8.3 v 16.28 h 8.3 c 5.89,0 8.84,-2.69 8.84,-8.09 0,-5.4 -2.95,-8.19 -8.84,-8.19 z m -79.29,1.27 h -7.24 v 38.53 h 7.24 c 6.1,0 10.89,-1.66 14.37,-5 3.47,-3.33 5.21,-8.05 5.21,-14.15 0,-6.1 -1.74,-10.95 -5.21,-14.32 -3.48,-3.37 -8.27,-5.06 -14.37,-5.06 z"
     id="path1" />
</svg>
