<?xml version="1.0" encoding="UTF-8"?>
<svg id="Layer_1" data-name="Layer 1" xmlns="http://www.w3.org/2000/svg" viewBox="0 0 707.12 257.33">
  <defs>
    <style>
      .cls-1 {
        fill: #fff;
      }
    </style>
  </defs>
  <path class="cls-1" d="M136.57,114.3c-3.48-3.37-8.27-5.06-14.37-5.06h-7.24v38.53h7.24c6.1,0,10.89-1.66,14.37-5,3.47-3.33,5.21-8.05,5.21-14.15s-1.74-10.95-5.21-14.32ZM136.57,114.3c-3.48-3.37-8.27-5.06-14.37-5.06h-7.24v38.53h7.24c6.1,0,10.89-1.66,14.37-5,3.47-3.33,5.21-8.05,5.21-14.15s-1.74-10.95-5.21-14.32ZM128.64,0C57.59,0,0,57.62,0,128.67s57.59,128.66,128.64,128.66,128.63-57.61,128.63-128.66S199.72,0,128.64,0ZM86.33,107.75h-20.01v58.44h-20.86v-58.44h-19.8v-16.6h60.67v16.6ZM158.12,147.99c-3.23,5.67-7.81,10.13-13.73,13.35-5.92,3.24-12.79,4.85-20.6,4.85h-29.69v-75.04h29.69c7.88,0,14.78,1.58,20.71,4.73,5.92,3.16,10.48,7.58,13.67,13.26,3.2,5.67,4.79,12.17,4.79,19.48s-1.61,13.69-4.84,19.37ZM219,137.5c-4.22,2.24-9.38,3.36-15.48,3.36h-10.33v25.33h-20.86v-75.04h31.19c6.03,0,11.15,1.06,15.38,3.19,4.22,2.13,7.39,5.08,9.52,8.84s3.2,8.08,3.2,12.98c0,4.54-1.05,8.68-3.14,12.4-2.1,3.73-5.26,6.71-9.48,8.94ZM201.49,107.97h-8.3v16.28h8.3c5.89,0,8.84-2.69,8.84-8.09s-2.95-8.19-8.84-8.19ZM122.2,109.24h-7.24v38.53h7.24c6.1,0,10.89-1.66,14.37-5,3.47-3.33,5.21-8.05,5.21-14.15s-1.74-10.95-5.21-14.32c-3.48-3.37-8.27-5.06-14.37-5.06Z"/>
  <g>
    <path class="cls-1" d="M342.76,63.53v12.62h-17.14v52.05h-15.75v-52.05h-17.14v-12.62h50.03Z"/>
    <path class="cls-1" d="M396.47,82.1c3.56,3.9,5.34,9.26,5.34,16.08v30.03h-15.66v-27.92c0-3.44-.89-6.11-2.67-8.02-1.78-1.9-4.18-2.86-7.19-2.86s-5.4.95-7.19,2.86c-1.78,1.9-2.67,4.58-2.67,8.02v27.92h-15.75V60.03h15.75v23.68c1.6-2.27,3.78-4.08,6.54-5.44,2.76-1.35,5.87-2.03,9.3-2.03,5.9,0,10.62,1.95,14.19,5.85Z"/>
    <path class="cls-1" d="M460.96,106.28h-35.65c.25,3.19,1.27,5.64,3.09,7.32,1.81,1.69,4.04,2.53,6.68,2.53,3.93,0,6.66-1.66,8.2-4.97h16.77c-.86,3.38-2.41,6.42-4.65,9.12-2.24,2.7-5.05,4.82-8.43,6.36-3.38,1.54-7.16,2.3-11.33,2.3-5.04,0-9.52-1.07-13.45-3.22-3.93-2.15-7-5.22-9.21-9.21-2.21-3.99-3.32-8.66-3.32-14s1.09-10.01,3.27-14c2.18-3.99,5.24-7.06,9.17-9.21,3.93-2.15,8.44-3.22,13.54-3.22s9.4,1.04,13.27,3.13c3.87,2.09,6.89,5.07,9.07,8.94,2.18,3.87,3.27,8.38,3.27,13.54,0,1.47-.09,3.01-.28,4.61ZM445.11,97.53c0-2.7-.92-4.85-2.76-6.45-1.84-1.6-4.15-2.4-6.91-2.4s-4.87.77-6.68,2.3c-1.81,1.54-2.93,3.72-3.36,6.54h19.72Z"/>
    <path class="cls-1" d="M531.16,67.59c5.1,2.7,9.04,6.49,11.84,11.38,2.79,4.88,4.19,10.52,4.19,16.91s-1.4,11.95-4.19,16.86c-2.8,4.91-6.76,8.72-11.88,11.42-5.13,2.7-11.07,4.05-17.83,4.05h-24.23V63.53h24.23c6.82,0,12.77,1.35,17.87,4.05ZM526.18,109.69c3.32-3.25,4.97-7.86,4.97-13.82s-1.66-10.59-4.97-13.91c-3.32-3.32-7.96-4.97-13.91-4.97h-7.46v37.59h7.46c5.96,0,10.6-1.63,13.91-4.88Z"/>
    <path class="cls-1" d="M555.9,88.5c2-3.99,4.71-7.06,8.15-9.21,3.44-2.15,7.28-3.22,11.52-3.22,3.62,0,6.8.74,9.54,2.21,2.73,1.47,4.84,3.41,6.31,5.8v-7.28h15.75v51.41h-15.75v-7.28c-1.54,2.4-3.67,4.33-6.4,5.8-2.73,1.47-5.91,2.21-9.54,2.21-4.18,0-7.99-1.09-11.42-3.27-3.44-2.18-6.16-5.28-8.15-9.3-2-4.02-3-8.67-3-13.96s1-9.92,3-13.91ZM588.14,93.2c-2.18-2.27-4.84-3.41-7.97-3.41s-5.79,1.12-7.97,3.36c-2.18,2.24-3.27,5.33-3.27,9.26s1.09,7.05,3.27,9.35c2.18,2.3,4.84,3.45,7.97,3.45s5.79-1.14,7.97-3.41c2.18-2.27,3.27-5.37,3.27-9.3s-1.09-7.03-3.27-9.31Z"/>
    <path class="cls-1" d="M647.24,114.85v13.36h-8.02c-5.71,0-10.17-1.4-13.36-4.19-3.19-2.79-4.79-7.35-4.79-13.68v-20.45h-6.26v-13.08h6.26v-12.53h15.75v12.53h10.32v13.08h-10.32v20.64c0,1.54.37,2.64,1.11,3.32.74.68,1.96,1.01,3.69,1.01h5.62Z"/>
    <path class="cls-1" d="M655.85,88.5c2-3.99,4.71-7.06,8.15-9.21,3.44-2.15,7.28-3.22,11.52-3.22,3.62,0,6.8.74,9.54,2.21,2.73,1.47,4.84,3.41,6.31,5.8v-7.28h15.75v51.41h-15.75v-7.28c-1.54,2.4-3.67,4.33-6.4,5.8-2.73,1.47-5.91,2.21-9.54,2.21-4.18,0-7.99-1.09-11.42-3.27-3.44-2.18-6.16-5.28-8.15-9.3-2-4.02-3-8.67-3-13.96s1-9.92,3-13.91ZM688.1,93.2c-2.18-2.27-4.84-3.41-7.97-3.41s-5.79,1.12-7.97,3.36c-2.18,2.24-3.27,5.33-3.27,9.26s1.09,7.05,3.27,9.35c2.18,2.3,4.84,3.45,7.97,3.45s5.79-1.14,7.97-3.41c2.18-2.27,3.27-5.37,3.27-9.3s-1.09-7.03-3.27-9.31Z"/>
    <path class="cls-1" d="M342.94,167.15c-1.72,3.1-4.36,5.61-7.92,7.51-3.56,1.9-7.98,2.86-13.27,2.86h-9.77v23.22h-15.75v-64.67h25.52c5.16,0,9.52.89,13.08,2.67,3.56,1.78,6.23,4.24,8.02,7.37,1.78,3.13,2.67,6.73,2.67,10.78,0,3.75-.86,7.17-2.58,10.27ZM327.28,162.87c1.47-1.41,2.21-3.41,2.21-5.99s-.74-4.58-2.21-5.99-3.72-2.12-6.73-2.12h-8.57v16.21h8.57c3.01,0,5.25-.71,6.73-2.12Z"/>
    <path class="cls-1" d="M353.58,161.03c2-3.99,4.71-7.06,8.15-9.21,3.44-2.15,7.28-3.22,11.52-3.22,3.62,0,6.8.74,9.54,2.21,2.73,1.47,4.84,3.41,6.31,5.8v-7.28h15.75v51.41h-15.75v-7.28c-1.54,2.4-3.67,4.33-6.4,5.8-2.73,1.47-5.91,2.21-9.54,2.21-4.18,0-7.99-1.09-11.42-3.27-3.44-2.18-6.16-5.28-8.15-9.31-2-4.02-2.99-8.67-2.99-13.96s1-9.92,2.99-13.91ZM385.83,165.73c-2.18-2.27-4.84-3.41-7.97-3.41s-5.79,1.12-7.97,3.36c-2.18,2.24-3.27,5.33-3.27,9.26s1.09,7.05,3.27,9.35c2.18,2.3,4.84,3.46,7.97,3.46s5.79-1.14,7.97-3.41c2.18-2.27,3.27-5.37,3.27-9.31s-1.09-7.03-3.27-9.3Z"/>
    <path class="cls-1" d="M438.94,151.22c2.76-1.63,5.83-2.44,9.21-2.44v16.67h-4.33c-3.93,0-6.88.84-8.84,2.53-1.97,1.69-2.95,4.65-2.95,8.89v23.86h-15.75v-51.41h15.75v8.57c1.84-2.82,4.15-5.05,6.91-6.68Z"/>
    <path class="cls-1" d="M484.36,187.38v13.36h-8.02c-5.71,0-10.17-1.4-13.36-4.19-3.19-2.79-4.79-7.35-4.79-13.68v-20.45h-6.26v-13.08h6.26v-12.53h15.75v12.53h10.32v13.08h-10.32v20.64c0,1.54.37,2.64,1.11,3.32.74.68,1.96,1.01,3.69,1.01h5.62Z"/>
    <path class="cls-1" d="M538.85,154.63c3.59,3.9,5.39,9.26,5.39,16.08v30.03h-15.66v-27.92c0-3.44-.89-6.11-2.67-8.01-1.78-1.9-4.18-2.86-7.19-2.86s-5.41.95-7.19,2.86c-1.78,1.9-2.67,4.58-2.67,8.01v27.92h-15.75v-51.41h15.75v6.82c1.6-2.27,3.75-4.07,6.45-5.39,2.7-1.32,5.74-1.98,9.12-1.98,6.02,0,10.83,1.95,14.42,5.85Z"/>
    <path class="cls-1" d="M603.39,178.81h-35.65c.25,3.19,1.27,5.64,3.09,7.32,1.81,1.69,4.04,2.53,6.68,2.53,3.93,0,6.66-1.66,8.2-4.98h16.77c-.86,3.38-2.41,6.42-4.65,9.12-2.24,2.7-5.05,4.82-8.43,6.36-3.38,1.54-7.16,2.3-11.33,2.3-5.04,0-9.52-1.07-13.45-3.22-3.93-2.15-7-5.22-9.21-9.21-2.21-3.99-3.32-8.66-3.32-14s1.09-10.01,3.27-14c2.18-3.99,5.24-7.06,9.17-9.21,3.93-2.15,8.44-3.22,13.54-3.22s9.4,1.04,13.27,3.13,6.89,5.07,9.07,8.94c2.18,3.87,3.27,8.38,3.27,13.54,0,1.47-.09,3.01-.28,4.61ZM587.54,170.06c0-2.7-.92-4.85-2.76-6.45-1.84-1.6-4.15-2.4-6.91-2.4s-4.87.77-6.68,2.3c-1.81,1.54-2.93,3.72-3.36,6.54h19.72Z"/>
    <path class="cls-1" d="M634.62,151.22c2.76-1.63,5.83-2.44,9.21-2.44v16.67h-4.33c-3.93,0-6.88.84-8.84,2.53-1.97,1.69-2.95,4.65-2.95,8.89v23.86h-15.75v-51.41h15.75v8.57c1.84-2.82,4.15-5.05,6.91-6.68Z"/>
  </g>
</svg>