<?xml version="1.0" encoding="UTF-8"?>
<svg id="Layer_1" data-name="Layer 1" xmlns="http://www.w3.org/2000/svg" xmlns:xlink="http://www.w3.org/1999/xlink" viewBox="0 0 257.27 257.33">
  <defs>
    <style>
      .cls-1 {
        fill: url(#linear-gradient);
      }
    </style>
    <linearGradient id="linear-gradient" x1="28.71" y1="209.7" x2="295.85" y2="-6.9" gradientUnits="userSpaceOnUse">
      <stop offset=".04" stop-color="#141943"/>
      <stop offset=".21" stop-color="#142765"/>
      <stop offset=".58" stop-color="#144bbe"/>
      <stop offset=".83" stop-color="#1466ff"/>
    </linearGradient>
  </defs>
  <path class="cls-1" d="M136.57,114.3c-3.48-3.37-8.27-5.06-14.37-5.06h-7.24v38.53h7.24c6.1,0,10.89-1.66,14.37-5,3.47-3.33,5.21-8.05,5.21-14.15s-1.74-10.95-5.21-14.32ZM136.57,114.3c-3.48-3.37-8.27-5.06-14.37-5.06h-7.24v38.53h7.24c6.1,0,10.89-1.66,14.37-5,3.47-3.33,5.21-8.05,5.21-14.15s-1.74-10.95-5.21-14.32ZM128.64,0C57.59,0,0,57.62,0,128.67s57.59,128.66,128.64,128.66,128.63-57.61,128.63-128.66S199.72,0,128.64,0ZM86.33,107.75h-20.01v58.44h-20.86v-58.44h-19.8v-16.6h60.67v16.6ZM158.12,147.99c-3.23,5.67-7.81,10.13-13.73,13.35-5.92,3.24-12.79,4.85-20.6,4.85h-29.69v-75.04h29.69c7.88,0,14.78,1.58,20.71,4.73,5.92,3.16,10.48,7.58,13.67,13.26,3.2,5.67,4.79,12.17,4.79,19.48s-1.61,13.69-4.84,19.37ZM219,137.5c-4.22,2.24-9.38,3.36-15.48,3.36h-10.33v25.33h-20.86v-75.04h31.19c6.03,0,11.15,1.06,15.38,3.19,4.22,2.13,7.39,5.08,9.52,8.84,2.13,3.76,3.2,8.08,3.2,12.98,0,4.54-1.05,8.68-3.14,12.4-2.1,3.73-5.26,6.71-9.48,8.94ZM201.49,107.97h-8.3v16.28h8.3c5.89,0,8.84-2.69,8.84-8.09s-2.95-8.19-8.84-8.19ZM122.2,109.24h-7.24v38.53h7.24c6.1,0,10.89-1.66,14.37-5,3.47-3.33,5.21-8.05,5.21-14.15s-1.74-10.95-5.21-14.32c-3.48-3.37-8.27-5.06-14.37-5.06Z"/>
</svg>