<?xml version="1.0" encoding="UTF-8" standalone="no"?>
<svg
   id="Layer_1"
   version="1.1"
   viewBox="0 0 376.68 376.73001"
   sodipodi:docname="TWP_Logo_TWP_Logo_White.svg"
   width="376.67999"
   height="376.73001"
   inkscape:version="1.4.2 (f4327f4, 2025-05-13)"
   xmlns:inkscape="http://www.inkscape.org/namespaces/inkscape"
   xmlns:sodipodi="http://sodipodi.sourceforge.net/DTD/sodipodi-0.dtd"
   xmlns="http://www.w3.org/2000/svg"
   xmlns:svg="http://www.w3.org/2000/svg">
  <sodipodi:namedview
     id="namedview18"
     pagecolor="#505050"
     bordercolor="#eeeeee"
     borderopacity="1"
     inkscape:showpageshadow="0"
     inkscape:pageopacity="0"
     inkscape:pagecheckerboard="0"
     inkscape:deskcolor="#505050"
     inkscape:zoom="1.0351562"
     inkscape:cx="526.00757"
     inkscape:cy="174.36982"
     inkscape:window-width="1920"
     inkscape:window-height="1013"
     inkscape:window-x="-9"
     inkscape:window-y="-9"
     inkscape:window-maximized="1"
     inkscape:current-layer="Layer_1" />
  <!-- Generator: Adobe Illustrator 29.4.0, SVG Export Plug-In . SVG Version: 2.1.0 Build 152)  -->
  <defs
     id="defs1">
    <style
       id="style1">
      .st0 {
        fill: #fff;
      }
    </style>
  </defs>
  <path
     class="st0"
     d="m 312.41,159.94 h -22.39 v 23.25 h 22.39 c 8.38,0 12.6,-3.83 12.6,-11.5 0,-7.67 -4.22,-11.75 -12.6,-11.75 z m 0,0 h -22.39 v 23.25 h 22.39 c 8.38,0 12.6,-3.83 12.6,-11.5 0,-7.67 -4.22,-11.75 -12.6,-11.75 z M 188.37,0 C 84.36,0 0,84.36 0,188.37 0,292.38 84.36,376.73 188.37,376.73 292.38,376.73 376.68,292.37 376.68,188.37 376.68,84.37 292.42,0 188.37,0 Z m 144.5,202.12 c -5.99,3.17 -13.37,4.79 -22.05,4.79 h -20.8 v 36.14 h -29.76 v -92.12 l -22.58,92.12 h -36.61 l -14.72,-65.66 -15.09,65.66 H 134.64 L 114.41,159.61 H 87.72 v 83.44 H 57.9 V 159.61 H 25.17 v -23.73 h 115.7 l 12.46,73.29 16.92,-73.29 h 32.64 l 16.39,72.66 12.51,-72.66 h 79.03 c 8.58,0 15.87,1.54 21.96,4.61 6.04,3.01 10.59,7.23 13.61,12.6 3.07,5.37 4.6,11.55 4.6,18.55 0,6.47 -1.53,12.32 -4.55,17.73 -2.98,5.27 -7.48,9.49 -13.57,12.75 z m -20.46,-42.18 h -22.39 v 23.25 h 22.39 c 8.38,0 12.6,-3.83 12.6,-11.5 0,-7.67 -4.22,-11.75 -12.6,-11.75 z"
     id="path18" />
</svg>
